HIERARCHY
ROOT Hips
{
	OFFSET 0.00000 0.00000 0.00000
	CHANNELS 6 Xposition Yposition Zposition Zrotation Yrotation Xrotation 
	JOINT LHipJoint
	{
		OFFSET 0 0 0
		CHANNELS 3 Zrotation Yrotation Xrotation
		JOINT LeftUpLeg
		{
			OFFSET 3.13874 -1.57224 1.49786
			CHANNELS 3 Zrotation Yrotation Xrotation
			JOINT LeftLeg
			{
				OFFSET 2.10955 -5.79594 0.00000
				CHANNELS 3 Zrotation Yrotation Xrotation
				JOINT LeftFoot
				{
					OFFSET 2.41843 -6.64458 0.00000
					CHANNELS 3 Zrotation Yrotation Xrotation
					JOINT LeftToeBase
					{
						OFFSET 0.04713 -0.12948 1.66229
						CHANNELS 3 Zrotation Yrotation Xrotation
						End Site
						{
							OFFSET 0.00000 -0.00000 0.85167
						}
					}
				}
			}
		}
	}
	JOINT RHipJoint
	{
		OFFSET 0 0 0
		CHANNELS 3 Zrotation Yrotation Xrotation
		JOINT RightUpLeg
		{
			OFFSET -3.13988 -1.57224 1.49786
			CHANNELS 3 Zrotation Yrotation Xrotation
			JOINT RightLeg
			{
				OFFSET -2.15006 -5.90725 0.00000
				CHANNELS 3 Zrotation Yrotation Xrotation
				JOINT RightFoot
				{
					OFFSET -2.34496 -6.44273 0.00000
					CHANNELS 3 Zrotation Yrotation Xrotation
					JOINT RightToeBase
					{
						OFFSET -0.08699 -0.23900 1.55223
						CHANNELS 3 Zrotation Yrotation Xrotation
						End Site
						{
							OFFSET -0.00000 -0.00000 0.80281
						}
					}
				}
			}
		}
	}
	JOINT LowerBack
	{
		OFFSET 0 0 0
		CHANNELS 3 Zrotation Yrotation Xrotation
		JOINT Spine
		{
			OFFSET 0.01292 1.96517 -0.16495
			CHANNELS 3 Zrotation Yrotation Xrotation
			JOINT Spine1
			{
				OFFSET 0.02122 1.88666 0.19706
				CHANNELS 3 Zrotation Yrotation Xrotation
				JOINT Neck
				{
					OFFSET 0 0 0
					CHANNELS 3 Zrotation Yrotation Xrotation
					JOINT Neck1
					{
						OFFSET -0.01683 1.81591 0.07903
						CHANNELS 3 Zrotation Yrotation Xrotation
						JOINT Head
						{
							OFFSET 0.00815 1.74013 -0.47700
							CHANNELS 3 Zrotation Yrotation Xrotation
							End Site
							{
								OFFSET -0.00204 1.83225 -0.16933
							}
						}
					}
				}
				JOINT LeftShoulder
				{
					OFFSET 0 0 0
					CHANNELS 3 Zrotation Yrotation Xrotation
					JOINT LeftArm
					{
						OFFSET 3.38482 1.41533 0.19802
						CHANNELS 3 Zrotation Yrotation Xrotation
						JOINT LeftForeArm
						{
							OFFSET 4.32712 -0.00000 0.00000
							CHANNELS 3 Zrotation Yrotation Xrotation
							JOINT LeftHand
							{
								OFFSET 3.28587 -0.00000 -0.00000
								CHANNELS 3 Zrotation Yrotation Xrotation
								JOINT LeftFingerBase
								{
									OFFSET 0 0 0
									CHANNELS 3 Zrotation Yrotation Xrotation
									JOINT LeftHandIndex1
									{
										OFFSET 0.43316 -0.00000 -0.00000
										CHANNELS 3 Zrotation Yrotation Xrotation
										End Site
										{
											OFFSET 0.34922 -0.00000 -0.00000
										}
									}
								}
								JOINT LThumb
								{
									OFFSET 0 0 0
									CHANNELS 3 Zrotation Yrotation Xrotation
									End Site
									{
										OFFSET 0.35456 -0.00000 0.35456
									}
								}
							}
						}
					}
				}
				JOINT RightShoulder
				{
					OFFSET 0 0 0
					CHANNELS 3 Zrotation Yrotation Xrotation
					JOINT RightArm
					{
						OFFSET -3.09725 1.62858 -0.14144
						CHANNELS 3 Zrotation Yrotation Xrotation
						JOINT RightForeArm
						{
							OFFSET -4.29104 -0.00000 0.00000
							CHANNELS 3 Zrotation Yrotation Xrotation
							JOINT RightHand
							{
								OFFSET -3.22720 -0.00000 -0.00000
								CHANNELS 3 Zrotation Yrotation Xrotation
								JOINT RightFingerBase
								{
									OFFSET 0 0 0
									CHANNELS 3 Zrotation Yrotation Xrotation
									JOINT RightHandIndex1
									{
										OFFSET -0.54362 -0.00000 -0.00000
										CHANNELS 3 Zrotation Yrotation Xrotation
										End Site
										{
											OFFSET -0.43828 -0.00000 -0.00000
										}
									}
								}
								JOINT RThumb
								{
									OFFSET 0 0 0
									CHANNELS 3 Zrotation Yrotation Xrotation
									End Site
									{
										OFFSET -0.44497 -0.00000 0.44497
									}
								}
							}
						}
					}
				}
			}
		}
	}
}
MOTION
Frames: 12
Frame Time: .0083333
-10.3884 15.8328 2.9563 0 0 0 0 0 0 -21 0 0 0 0 0 0 0 0 0 0 0 0 0 0 21 0 0 0 0 0 0 0 0 0 0 0 0 0 0 0 0 0 0 0 0 0 0 -16 0 0 21 0 0 11 0 0 0 -8 0 0 0 0 0 0 0 0 0 0 0 0 0 0 0 0 0 0 0 0 8 0 0 0 0 0 0 0 0 0 0 0 0 0 0 0 0 0
-10.3884 15.8328 2.9563 -145.7400 -82.1720 154.8210 0.0000 0.0000 0.0000 -8.4934 -34.9547 -19.6493 0.1619 2.5921 7.1451 0.2506 9.5732 -17.2614 9.0872 -16.8635 -56.3914 0.0000 0.0000 0.0000 39.4354 10.1276 10.5872 -0.4253 4.1854 -11.5990 -0.2878 -18.9266 -28.9679 -0.0504 1.4493 -3.9860 2.3013 3.0767 6.1830 2.2018 4.4444 -10.2680 0.3689 1.8591 -14.8107 0.9988 -0.9257 -18.6193 -0.8546 -2.4626 35.0845 -1.0913 -1.3909 15.4227 -0.0000 0.0000 0.0000 -83.4773 7.5772 -5.3959 25.4765 -36.6870 -8.5730 -0.0000 -0.0000 8.7552 35.6303 27.6432 18.3938 -7.1250 0.0000 -0.0000 6.7034 62.6549 2.8820 -0.0000 0.0000 0.0000 74.1005 -14.5019 48.1442 -17.3985 27.3802 -4.2690 0.0000 -0.0000 -13.7754 -36.4062 -15.7803 11.3399 7.1250 -0.0000 -0.0000 -8.6292 -49.1334 0.8856
-10.3945 15.8363 2.9494 -146.3080 -82.1478 155.3250 0.0000 0.0000 0.0000 -8.4517 -35.1454 -19.5468 0.1722 2.6733 7.3704 0.6850 6.6919 -19.4756 10.1667 -17.5025 -60.0439 0.0000 0.0000 0.0000 39.4395 10.1465 10.6678 -0.4222 4.1702 -11.5560 -0.2866 -18.8792 -28.8994 -0.0403 1.2962 -3.5642 2.1756 3.0422 6.2045 2.2759 4.3897 -10.2451 0.5300 1.8530 -14.8139 1.0115 -0.8844 -18.6773 -0.9161 -2.3861 35.1354 -1.1078 -1.3662 15.4606 -0.0000 0.0000 0.0000 -83.9146 8.2920 -2.0358 23.0263 -34.1176 -7.1531 -0.0000 -0.0000 10.2922 49.5363 19.2488 21.1310 -7.1250 0.0000 -0.0000 24.2477 56.5682 7.1691 -0.0000 0.0000 0.0000 74.0045 -14.2588 47.8017 -17.2809 27.2266 -4.2151 0.0000 -0.0000 -12.2548 -33.9612 -18.0064 11.7611 7.1250 -0.0000 -0.0000 -6.0358 -51.2818 0.9369
-10.3994 15.8386 2.9430 -146.6520 -82.1019 155.6410 0.0000 0.0000 0.0000 -8.3942 -35.2537 -19.4857 0.1771 2.7106 7.4741 1.0011 5.6448 -21.7456 11.1101 -17.9886 -63.1387 0.0000 0.0000 0.0000 39.4886 10.1919 10.7321 -0.4205 4.1620 -11.5329 -0.2880 -18.8717 -28.8995 -0.0412 1.3108 -3.6045 2.0994 3.0335 6.1999 2.3280 4.3735 -10.2149 0.6334 1.8586 -14.7853 0.9575 -0.8826 -18.7598 -0.9063 -2.3664 35.1451 -1.0919 -1.3625 15.4859 -0.0000 -0.0000 0.0000 -84.2786 9.1540 2.0418 21.0540 -31.8913 -6.0784 -0.0000 -0.0000 11.3805 60.2176 16.5531 26.4652 -7.1250 0.0000 -0.0000 37.8932 56.5299 11.8919 -0.0000 -0.0000 0.0000 73.9701 -14.0891 47.4994 -17.2325 27.1633 -4.1929 0.0000 -0.0000 -11.2726 -27.9398 -22.0286 11.2506 7.1250 -0.0000 -0.0000 0.9686 -54.5845 -0.2281
-10.4060 15.8405 2.9355 -146.9160 -82.0498 155.8890 0.0000 0.0000 0.0000 -8.3854 -35.1854 -19.4635 0.1774 2.7134 7.4818 1.1436 6.8780 -23.7813 11.9806 -18.3825 -65.9274 0.0000 0.0000 0.0000 39.5658 10.2448 10.7994 -0.4186 4.1529 -11.5073 -0.2779 -18.9104 -28.8758 -0.0499 1.4413 -3.9640 1.9800 3.0298 6.1425 2.4184 4.3599 -10.1612 0.8054 1.8742 -14.7015 0.7941 -0.8743 -18.8424 -0.8155 -2.3222 35.1166 -1.0169 -1.3505 15.4962 0.0000 0.0000 0.0000 -84.6776 9.9771 6.5160 19.3975 -29.9096 -5.2276 -0.0000 -0.0000 12.1629 69.7316 17.6393 39.3714 -7.1250 0.0000 -0.0000 59.7236 61.7157 29.8109 0.0000 0.0000 0.0000 73.7602 -14.0406 48.0774 -17.3832 27.3602 -4.2620 0.0000 -0.0000 -12.2938 -33.4966 -18.5053 11.8626 7.1250 -0.0000 -0.0000 -5.5107 -51.7662 0.9205
-10.4149 15.8415 2.9302 -147.0580 -81.9967 156.0080 0.0000 0.0000 0.0000 -8.4175 -35.0232 -19.4564 0.1793 2.7275 7.5211 1.9564 5.4115 -28.8094 13.1093 -18.8213 -69.4647 0.0000 0.0000 0.0000 39.6429 10.2766 10.8882 -0.4173 4.1464 -11.4890 -0.2902 -18.8941 -28.9437 -0.0534 1.4912 -4.1014 1.9926 3.0455 6.1011 2.4553 4.3851 -10.1200 0.8369 1.8890 -14.6278 0.6494 -0.8671 -18.9800 -0.7001 -2.2997 35.1508 -0.9408 -1.3414 15.5497 -0.0000 0.0000 0.0000 -85.0791 11.3892 14.6728 17.5712 -27.6047 -4.3487 -0.0000 -0.0000 12.3245 62.9762 30.4691 44.8323 -7.1250 0.0000 -0.0000 67.7259 72.8206 50.2860 -0.0000 0.0000 0.0000 73.6373 -13.9606 48.1646 -17.5003 27.5126 -4.3159 0.0000 -0.0000 -12.0902 -33.4432 -19.0156 12.1446 7.1250 -0.0000 -0.0000 -5.4083 -52.3415 0.9797
-10.4224 15.8412 2.9269 -147.2700 -81.9549 156.2130 0.0000 0.0000 0.0000 -8.4607 -34.8889 -19.4853 0.1832 2.7567 7.6022 1.9599 5.1272 -28.6832 13.0882 -18.8138 -69.3993 0.0000 0.0000 0.0000 39.6774 10.3124 10.9455 -0.4153 4.1366 -11.4613 -0.3092 -18.8853 -29.0696 -0.0564 1.5327 -4.2158 2.0018 3.0397 6.0741 2.4875 4.3798 -10.1110 0.8698 1.8880 -14.6020 0.5737 -0.8261 -19.0529 -0.6620 -2.2251 35.1930 -0.8993 -1.3142 15.5899 -0.0000 -0.0000 0.0000 -85.2545 13.1740 24.3454 16.7008 -26.4616 -3.9531 -0.0000 -0.0000 10.8638 67.5086 36.9609 55.4485 -7.1250 0.0000 -0.0000 90.7311 -75.8195 -105.3888 -0.0000 -0.0000 0.0000 73.5898 -13.7891 47.5838 -17.4813 27.4879 -4.3071 0.0000 -0.0000 -9.9679 -28.6292 -22.5807 11.8383 7.1250 -0.0000 -0.0000 0.3692 -55.3305 -0.0936
-10.4284 15.8409 2.9228 -147.9150 -81.9390 156.8640 0.0000 0.0000 0.0000 -8.5408 -34.8210 -19.5362 0.1888 2.7981 7.7170 1.9640 4.9304 -28.6092 13.0670 -18.8062 -69.3336 0.0000 0.0000 0.0000 39.6333 10.3692 10.9628 -0.4122 4.1213 -11.4183 -0.3050 -18.8971 -29.0541 -0.0557 1.5225 -4.1879 1.9193 3.0311 6.0572 2.5002 4.3571 -10.1284 0.9346 1.8865 -14.6200 0.5804 -0.7896 -19.0067 -0.6673 -2.1701 35.1718 -0.8916 -1.2917 15.5690 0.0000 -0.0000 0.0000 -85.2711 13.2300 24.2681 16.6823 -26.4371 -3.9449 -0.0000 -0.0000 10.8961 65.9960 37.7568 53.9729 -7.1250 0.0000 -0.0000 89.0824 -76.7050 -102.7235 0.0000 -0.0000 0.0000 73.5290 -13.6860 47.5073 -17.4727 27.4767 -4.3032 0.0000 -0.0000 -9.1150 -26.1024 -23.8469 11.2043 7.1250 -0.0000 -0.0000 3.4780 -56.1541 -0.9523
-10.4354 15.8413 2.9196 -148.5920 -81.9488 157.5510 0.0000 0.0000 0.0000 -8.6702 -34.7147 -19.5589 0.1919 2.8215 7.7822 1.9594 4.7898 -28.5074 13.0421 -18.7973 -69.2563 0.0000 0.0000 0.0000 39.5618 10.3933 10.9997 -0.4125 4.1230 -11.4230 -0.3159 -18.8184 -29.0331 -0.0462 1.3877 -3.8161 1.9348 3.0602 6.0395 2.4265 4.3900 -10.1477 0.8390 1.8949 -14.6237 0.7579 -0.8341 -18.9450 -0.8163 -2.2404 35.0831 -0.9960 -1.3185 15.5055 -0.0000 -0.0000 0.0000 -85.1728 13.1628 24.2731 16.5910 -26.3155 -3.9043 -0.0000 -0.0000 10.9785 64.4007 38.5124 52.4246 -7.1250 0.0000 -0.0000 86.9680 -77.5876 -99.5910 -0.0000 -0.0000 0.0000 73.6243 -13.6504 47.5286 -17.4810 27.4875 -4.3070 0.0000 -0.0000 -9.2778 -26.1651 -23.5067 11.0872 7.1250 -0.0000 -0.0000 3.2981 -55.8047 -0.8750
-10.4420 15.8411 2.9150 -148.4340 -81.9350 157.4070 0.0000 0.0000 0.0000 -8.6627 -34.5240 -19.6304 0.1947 2.8417 7.8383 1.9436 4.6685 -28.3419 13.0386 -18.7960 -69.2452 0.0000 0.0000 0.0000 39.6283 10.3958 11.0393 -0.4140 4.1304 -11.4438 -0.3312 -18.7588 -29.0689 -0.0417 1.3176 -3.6230 2.0767 3.0943 6.0281 2.3601 4.4465 -10.1814 0.6769 1.9000 -14.6398 0.9135 -0.9005 -18.8268 -0.9689 -2.3343 34.9808 -1.1010 -1.3598 15.4219 0.0000 0.0000 0.0000 -85.0376 13.1666 24.3161 16.5443 -26.2531 -3.8836 -0.0000 -0.0000 11.2297 62.7170 39.2314 50.8030 -7.1250 0.0000 -0.0000 84.3038 -78.4639 -95.9030 0.0000 0.0000 0.0000 73.8099 -13.6708 47.3698 -17.4986 27.5104 -4.3151 0.0000 -0.0000 -9.3653 -26.1591 -23.4979 11.0805 7.1250 -0.0000 -0.0000 3.3017 -55.7941 -0.8752
-10.4471 15.8393 2.9078 -147.6950 -81.8907 156.7060 0.0000 0.0000 0.0000 -8.4964 -34.3233 -19.8394 0.2033 2.9035 8.0101 1.9269 4.4448 -28.1187 13.0446 -18.7982 -69.2640 0.0000 0.0000 0.0000 39.8088 10.4236 11.0353 -0.4129 4.1248 -11.4280 -0.3307 -18.7979 -29.1135 -0.0459 1.3829 -3.8029 2.1784 3.0873 6.0191 2.3984 4.4520 -10.2237 0.6627 1.8918 -14.6814 0.8141 -0.8879 -18.8171 -0.8531 -2.3263 35.0159 -1.0340 -1.3539 15.4404 -0.0000 -0.0000 0.0000 -85.0091 13.3054 24.4139 16.5319 -26.2366 -3.8781 -0.0000 -0.0000 11.0879 60.9641 39.6395 48.9712 -7.1250 0.0000 -0.0000 90.4079 79.3123 79.5367 -0.0000 -0.0000 0.0000 73.8126 -13.7124 47.4685 -17.5653 27.5970 -4.3460 0.0000 -0.0000 -9.5865 -26.2649 -23.4684 11.1181 7.1250 -0.0000 -0.0000 3.1784 -55.7852 -0.8417
-10.4528 15.8377 2.9025 -147.4400 -81.8833 156.4800 0.0000 0.0000 0.0000 -8.4366 -34.1602 -20.0119 0.2107 2.9555 8.1550 1.9066 4.2565 -27.8906 13.0107 -18.7860 -69.1586 0.0000 0.0000 0.0000 39.8615 10.4421 11.0022 -0.4093 4.1071 -11.3780 -0.3301 -18.7873 -29.0965 -0.0424 1.3286 -3.6533 2.2637 3.0820 6.0121 2.4071 4.4555 -10.2426 0.6248 1.8835 -14.6939 0.5890 -0.8614 -19.0130 -0.6057 -2.3029 35.1456 -0.8910 -1.3367 15.5576 0.0000 -0.0000 0.0000 -84.9396 13.3940 24.8697 16.4665 -26.1490 -3.8492 -0.0000 -0.0000 10.0344 22.6168 40.4841 15.1349 -7.1250 0.0000 -0.0000 -21.2262 71.7475 -13.6933 0.0000 -0.0000 0.0000 73.7935 -13.7299 47.5491 -17.6434 27.6982 -4.3822 0.0000 -0.0000 -9.7606 -26.3688 -23.4420 11.1561 7.1250 -0.0000 -0.0000 3.0580 -55.7791 -0.8094
